ffmpeg started on 2016-12-06 at 21:35:55
Report written to "Output/x264/results/ffmpeg/crowd_run_2160p50medium7000k.log"
Command line:
Tools/ffmpeg/ffmpeg -benchmark -y -i Input/y4m/crowd_run_2160p50.y4m -c:v libx264 -preset medium -b:v 7000k -an Output/x264/encoded/crowd_run_2160p50medium7000k.mkv
ffmpeg version N-82227-gdb23fde Copyright (c) 2000-2016 the FFmpeg developers
  built with gcc 5.4.0 (Ubuntu 5.4.0-6ubuntu1~16.04.2) 20160609
  configuration: --prefix=/home/jaroslav/ffmpeg_build --pkg-config-flags=--static --extra-cflags=-I/home/jaroslav/ffmpeg_build/include --extra-ldflags=-L/home/jaroslav/ffmpeg_build/lib --bindir=/home/jaroslav/bin --enable-gpl --enable-libass --enable-libfdk-aac --enable-libfreetype --enable-libmp3lame --enable-libopus --enable-libtheora --enable-libvorbis --enable-libvpx --enable-libx264 --enable-libx265 --enable-nvenc --enable-libmfx --enable-libxvid --enable-libgsm --enable-libopencore-amrnb --enable-version3 --enable-nonfree
  libavutil      55. 35.100 / 55. 35.100
  libavcodec     57. 66.101 / 57. 66.101
  libavformat    57. 57.100 / 57. 57.100
  libavdevice    57.  2.100 / 57.  2.100
  libavfilter     6. 66.100 /  6. 66.100
  libswscale      4.  3.100 /  4.  3.100
  libswresample   2.  4.100 /  2.  4.100
  libpostproc    54.  2.100 / 54.  2.100
Input #0, yuv4mpegpipe, from 'Input/y4m/crowd_run_2160p50.y4m':
  Duration: 00:00:10.00, start: 0.000000, bitrate: 4976642 kb/s
    Stream #0:0: Video: rawvideo (I420 / 0x30323449), yuv420p(progressive), 3840x2160, SAR 1:1 DAR 16:9, 50 fps, 50 tbr, 50 tbn, 50 tbc
[libx264 @ 0x37ad1c0] using SAR=1/1
[libx264 @ 0x37ad1c0] using cpu capabilities: MMX2 SSE2Fast SSSE3 SSE4.2 AVX FMA3 AVX2 LZCNT BMI2
[libx264 @ 0x37ad1c0] profile High, level 5.2
[libx264 @ 0x37ad1c0] 264 - core 148 - H.264/MPEG-4 AVC codec - Copyleft 2003-2016 - http://www.videolan.org/x264.html - options: cabac=1 ref=3 deblock=1:0:0 analyse=0x3:0x113 me=hex subme=7 psy=1 psy_rd=1.00:0.00 mixed_ref=1 me_range=16 chroma_me=1 trellis=1 8x8dct=1 cqm=0 deadzone=21,11 fast_pskip=1 chroma_qp_offset=-2 threads=6 lookahead_threads=1 sliced_threads=0 nr=0 decimate=1 interlaced=0 bluray_compat=0 constrained_intra=0 bframes=3 b_pyramid=2 b_adapt=1 b_bias=0 direct=1 weightb=1 open_gop=0 weightp=2 keyint=250 keyint_min=25 scenecut=40 intra_refresh=0 rc_lookahead=40 rc=abr mbtree=1 bitrate=7000 ratetol=1.0 qcomp=0.60 qpmin=0 qpmax=69 qpstep=4 ip_ratio=1.40 aq=1:1.00
Output #0, matroska, to 'Output/x264/encoded/crowd_run_2160p50medium7000k.mkv':
  Metadata:
    encoder         : Lavf57.57.100
    Stream #0:0: Video: h264 (libx264) (H264 / 0x34363248), yuv420p, 3840x2160 [SAR 1:1 DAR 16:9], q=-1--1, 7000 kb/s, 50 fps, 1k tbn, 50 tbc
    Metadata:
      encoder         : Lavc57.66.101 libx264
    Side data:
      cpb: bitrate max/min/avg: 0/0/7000000 buffer size: 0 vbv_delay: -1
Stream mapping:
  Stream #0:0 -> #0:0 (rawvideo (native) -> h264 (libx264))
Press [q] to stop, [?] for help
frame=    8 fps=0.0 q=0.0 size=       0kB time=00:00:00.00 bitrate=N/A speed=   0x    frame=   25 fps= 24 q=0.0 size=       0kB time=00:00:00.00 bitrate=N/A speed=   0x    frame=   35 fps= 22 q=0.0 size=       0kB time=00:00:00.00 bitrate=N/A speed=   0x    frame=   43 fps= 20 q=0.0 size=       0kB time=00:00:00.00 bitrate=N/A speed=   0x    frame=   47 fps= 11 q=0.0 size=       0kB time=00:00:00.00 bitrate=N/A speed=   0x    frame=   53 fps= 11 q=37.0 size=       1kB time=00:00:00.00 bitrate=5872.0kbits/s speed=0.000201x    frame=   57 fps= 10 q=40.0 size=       1kB time=00:00:00.08 bitrate=  72.5kbits/s speed=0.0142x    frame=   63 fps= 10 q=53.0 size=       1kB time=00:00:00.20 bitrate=  29.2kbits/s speed=0.0324x    frame=   70 fps= 10 q=52.0 size=       1kB time=00:00:00.34 bitrate=  17.2kbits/s speed=0.0505x    frame=   77 fps= 10 q=52.0 size=       1kB time=00:00:00.48 bitrate=  12.2kbits/s speed=0.0656x    frame=   84 fps= 11 q=52.0 size=       1kB time=00:00:00.62 bitrate=   9.5kbits/s speed=0.079x    frame=   90 fps= 11 q=52.0 size=       1kB time=00:00:00.74 bitrate=   7.9kbits/s speed=0.0882x    frame=   98 fps= 11 q=51.0 size=       1kB time=00:00:00.90 bitrate=   6.5kbits/s speed=0.0995x    frame=  105 fps= 11 q=51.0 size=       1kB time=00:00:01.04 bitrate=   5.6kbits/s speed=0.109x    frame=  112 fps= 11 q=51.0 size=       1kB time=00:00:01.18 bitrate=   5.0kbits/s speed=0.117x    frame=  118 fps= 11 q=51.0 size=       1kB time=00:00:01.30 bitrate=   4.5kbits/s speed=0.122x    frame=  123 fps= 11 q=51.0 size=       1kB time=00:00:01.40 bitrate=   4.2kbits/s speed=0.125x    frame=  130 fps= 11 q=50.0 size=       1kB time=00:00:01.54 bitrate=   3.8kbits/s speed=0.132x    frame=  135 fps= 11 q=50.0 size=       1kB time=00:00:01.64 bitrate=   3.6kbits/s speed=0.134x    frame=  142 fps= 11 q=50.0 size=       1kB time=00:00:01.78 bitrate=   3.3kbits/s speed=0.139x    frame=  148 fps= 11 q=50.0 size=       1kB time=00:00:01.90 bitrate=   3.1kbits/s speed=0.141x    frame=  155 fps= 11 q=50.0 size=       1kB time=00:00:02.04 bitrate=   2.9kbits/s speed=0.146x    frame=  159 fps= 11 q=50.0 size=       1kB time=00:00:02.12 bitrate=   2.8kbits/s speed=0.145x    frame=  165 fps= 11 q=50.0 size=       1kB time=00:00:02.24 bitrate=   2.6kbits/s speed=0.148x    frame=  173 fps= 11 q=50.0 size=       1kB time=00:00:02.40 bitrate=   2.4kbits/s speed=0.153x    frame=  179 fps= 11 q=50.0 size=       1kB time=00:00:02.52 bitrate=   2.3kbits/s speed=0.155x    frame=  183 fps= 11 q=50.0 size=       1kB time=00:00:02.60 bitrate=   2.3kbits/s speed=0.155x    frame=  190 fps= 11 q=50.0 size=       1kB time=00:00:02.74 bitrate=   2.1kbits/s speed=0.157x    frame=  197 fps= 11 q=50.0 size=       1kB time=00:00:02.88 bitrate=   2.0kbits/s speed=0.161x    frame=  205 fps= 11 q=50.0 size=       1kB time=00:00:03.04 bitrate=   1.9kbits/s speed=0.163x    frame=  212 fps= 11 q=50.0 size=       1kB time=00:00:03.18 bitrate=   1.8kbits/s speed=0.165x    frame=  219 fps= 11 q=50.0 size=       1kB time=00:00:03.32 bitrate=   1.8kbits/s speed=0.168x    frame=  226 fps= 11 q=50.0 size=       1kB time=00:00:03.46 bitrate=   1.7kbits/s speed=0.17x    frame=  233 fps= 11 q=50.0 size=       1kB time=00:00:03.60 bitrate=   1.6kbits/s speed=0.171x    frame=  241 fps= 11 q=50.0 size=       1kB time=00:00:03.76 bitrate=   1.6kbits/s speed=0.174x    frame=  248 fps= 11 q=49.0 size=       1kB time=00:00:03.90 bitrate=   1.5kbits/s speed=0.176x    frame=  254 fps= 11 q=49.0 size=       1kB time=00:00:04.02 bitrate=   1.5kbits/s speed=0.177x    frame=  258 fps= 11 q=49.0 size=       1kB time=00:00:04.10 bitrate=   1.4kbits/s speed=0.177x    frame=  265 fps= 11 q=49.0 size=       1kB time=00:00:04.24 bitrate=   1.4kbits/s speed=0.177x    frame=  272 fps= 11 q=49.0 size=       1kB time=00:00:04.38 bitrate=   1.3kbits/s speed=0.179x    frame=  278 fps= 11 q=50.0 size=       1kB time=00:00:04.50 bitrate=   1.3kbits/s speed=0.18x    frame=  285 fps= 11 q=50.0 size=       1kB time=00:00:04.64 bitrate=   1.3kbits/s speed=0.182x    frame=  289 fps= 11 q=50.0 size=       1kB time=00:00:04.72 bitrate=   1.2kbits/s speed=0.18x    frame=  295 fps= 11 q=50.0 size=       1kB time=00:00:04.84 bitrate=   1.2kbits/s speed=0.181x    frame=  296 fps= 11 q=47.0 size=       1kB time=00:00:04.86 bitrate=   1.2kbits/s speed=0.175x    frame=  305 fps= 11 q=50.0 size=    4468kB time=00:00:05.04 bitrate=7261.6kbits/s speed=0.179x    frame=  312 fps= 11 q=50.0 size=    4468kB time=00:00:05.18 bitrate=7065.4kbits/s speed=0.18x    frame=  316 fps= 11 q=50.0 size=    4468kB time=00:00:05.26 bitrate=6957.9kbits/s speed=0.18x    frame=  323 fps= 11 q=50.0 size=    4468kB time=00:00:05.40 bitrate=6777.6kbits/s speed=0.181x    frame=  331 fps= 11 q=50.0 size=    4468kB time=00:00:05.56 bitrate=6582.6kbits/s speed=0.182x    frame=  338 fps= 11 q=50.0 size=    4468kB time=00:00:05.70 bitrate=6420.9kbits/s speed=0.183x    frame=  343 fps= 11 q=50.0 size=    4468kB time=00:00:05.80 bitrate=6310.2kbits/s speed=0.183x    frame=  351 fps= 11 q=50.0 size=    4468kB time=00:00:05.96 bitrate=6140.9kbits/s speed=0.185x    frame=  359 fps= 11 q=50.0 size=    4468kB time=00:00:06.12 bitrate=5980.3kbits/s speed=0.186x    frame=  367 fps= 11 q=50.0 size=    4468kB time=00:00:06.28 bitrate=5828.0kbits/s speed=0.187x    frame=  374 fps= 11 q=50.0 size=    4468kB time=00:00:06.42 bitrate=5700.9kbits/s speed=0.188x    frame=  381 fps= 11 q=50.0 size=    4468kB time=00:00:06.56 bitrate=5579.3kbits/s speed=0.189x    frame=  386 fps= 11 q=50.0 size=    4468kB time=00:00:06.66 bitrate=5495.5kbits/s speed=0.189x    frame=  393 fps= 11 q=50.0 size=    4468kB time=00:00:06.80 bitrate=5382.4kbits/s speed=0.19x    frame=  399 fps= 11 q=50.0 size=    4468kB time=00:00:06.92 bitrate=5289.1kbits/s speed=0.19x    frame=  404 fps= 11 q=50.0 size=    4468kB time=00:00:07.02 bitrate=5213.7kbits/s speed=0.19x    frame=  411 fps= 11 q=50.0 size=    4468kB time=00:00:07.16 bitrate=5111.8kbits/s speed=0.191x    frame=  417 fps= 11 q=50.0 size=    4468kB time=00:00:07.28 bitrate=5027.6kbits/s speed=0.192x    frame=  423 fps= 11 q=50.0 size=    4468kB time=00:00:07.40 bitrate=4946.0kbits/s speed=0.192x    frame=  428 fps= 11 q=50.0 size=    4468kB time=00:00:07.50 bitrate=4880.1kbits/s speed=0.192x    frame=  436 fps= 11 q=50.0 size=    4468kB time=00:00:07.66 bitrate=4778.2kbits/s speed=0.193x    frame=  443 fps= 11 q=50.0 size=    4468kB time=00:00:07.80 bitrate=4692.4kbits/s speed=0.194x    frame=  450 fps= 11 q=50.0 size=    4468kB time=00:00:07.94 bitrate=4609.7kbits/s speed=0.195x    frame=  456 fps= 11 q=50.0 size=    4468kB time=00:00:08.06 bitrate=4541.1kbits/s speed=0.195x    frame=  463 fps= 11 q=50.0 size=    4468kB time=00:00:08.20 bitrate=4463.6kbits/s speed=0.196x    frame=  468 fps= 11 q=50.0 size=    4468kB time=00:00:08.30 bitrate=4409.8kbits/s speed=0.195x    frame=  475 fps= 11 q=50.0 size=    4468kB time=00:00:08.44 bitrate=4336.6kbits/s speed=0.196x    frame=  483 fps= 11 q=50.0 size=    4468kB time=00:00:08.60 bitrate=4256.0kbits/s speed=0.196x    frame=  491 fps= 11 q=50.0 size=    4468kB time=00:00:08.76 bitrate=4178.2kbits/s speed=0.197x    frame=  499 fps= 11 q=50.0 size=    4468kB time=00:00:08.92 bitrate=4103.3kbits/s speed=0.197x    frame=  500 fps= 10 q=-1.0 Lsize=    8704kB time=00:00:09.94 bitrate=7172.3kbits/s speed=0.205x    
video:8699kB audio:0kB subtitle:0kB other streams:0kB global headers:0kB muxing overhead: 0.050236%
bench: utime=164.424s
bench: maxrss=1834924kB
[libx264 @ 0x37ad1c0] frame I:2     Avg QP:38.74  size:232308
[libx264 @ 0x37ad1c0] frame P:126   Avg QP:48.34  size: 32494
[libx264 @ 0x37ad1c0] frame B:372   Avg QP:49.96  size: 11689
[libx264 @ 0x37ad1c0] consecutive B-frames:  0.8%  0.0%  0.0% 99.2%
[libx264 @ 0x37ad1c0] mb I  I16..4: 22.6% 68.2%  9.2%
[libx264 @ 0x37ad1c0] mb P  I16..4:  3.4%  4.3%  0.0%  P16..4: 26.3%  2.1%  1.6%  0.0%  0.0%    skip:62.2%
[libx264 @ 0x37ad1c0] mb B  I16..4:  0.0%  0.0%  0.0%  B16..8: 27.8%  0.4%  0.0%  direct: 0.3%  skip:71.5%  L0:42.2% L1:57.7% BI: 0.1%
[libx264 @ 0x37ad1c0] final ratefactor: 41.47
[libx264 @ 0x37ad1c0] 8x8 transform intra:57.7% inter:97.5%
[libx264 @ 0x37ad1c0] coded y,uvDC,uvAC intra: 16.5% 50.5% 12.1% inter: 2.0% 4.6% 0.0%
[libx264 @ 0x37ad1c0] i16 v,h,dc,p: 44% 25%  8% 23%
[libx264 @ 0x37ad1c0] i8 v,h,dc,ddl,ddr,vr,hd,vl,hu: 16%  9% 45%  6%  5%  6%  5%  5%  4%
[libx264 @ 0x37ad1c0] i4 v,h,dc,ddl,ddr,vr,hd,vl,hu: 22% 17% 12%  9%  9%  9%  8%  7%  6%
[libx264 @ 0x37ad1c0] i8c dc,h,v,p: 85%  5%  8%  1%
[libx264 @ 0x37ad1c0] Weighted P-Frames: Y:1.6% UV:0.8%
[libx264 @ 0x37ad1c0] ref P L0: 70.9%  2.7% 19.1%  7.2%  0.1%
[libx264 @ 0x37ad1c0] ref B L0: 94.8%  4.0%  1.2%
[libx264 @ 0x37ad1c0] ref B L1: 98.7%  1.3%
[libx264 @ 0x37ad1c0] kb/s:7125.83
